<?xml version="1.0" encoding="UTF-8" standalone="no"?>
<!DOCTYPE svg PUBLIC "-//W3C//DTD SVG 1.1//EN" "http://www.w3.org/Graphics/SVG/1.1/DTD/svg11.dtd">
<svg xmlns="http://www.w3.org/2000/svg" version="1.1" viewBox="0.00 0.00 3269.00 962.00">
<path fill="#cc0000" d="
  M 1669.08 465.85
  C 1665.78 424.18 1646.02 389.90 1604.34 377.81
  Q 1580.97 371.03 1553.45 373.10
  Q 1531.75 374.74 1515.14 382.67
  C 1474.48 402.07 1458.39 445.95 1452.89 488.77
  Q 1447.09 533.98 1451.79 579.25
  C 1454.92 609.47 1463.29 642.00 1482.43 666.49
  Q 1507.10 698.06 1549.26 704.26
  Q 1570.40 707.37 1590.44 704.49
  Q 1630.88 698.67 1653.28 667.99
  C 1666.51 649.87 1671.81 628.51 1674.62 606.57
  A 0.67 0.66 -86.6 0 1 1675.28 605.98
  L 1858.32 605.98
  A 0.68 0.68 0.0 0 1 1859.00 606.71
  C 1856.06 654.42 1843.07 701.86 1817.37 742.28
  C 1773.87 810.69 1699.18 845.41 1620.50 854.69
  C 1525.77 865.87 1423.38 850.25 1349.40 786.06
  C 1295.46 739.26 1265.18 672.85 1255.34 602.74
  Q 1245.90 535.53 1256.44 469.48
  C 1264.13 421.35 1282.04 374.34 1310.90 335.05
  C 1349.69 282.25 1405.80 247.73 1469.22 232.23
  C 1517.54 220.43 1567.45 218.94 1617.50 224.54
  C 1653.77 228.60 1691.40 238.08 1724.27 254.49
  Q 1805.73 295.17 1837.76 379.26
  Q 1852.79 418.71 1856.23 465.72
  A 0.56 0.56 0.0 0 1 1855.67 466.33
  L 1669.60 466.33
  A 0.52 0.52 0.0 0 1 1669.08 465.85
  Z"
/>
<path fill="#cc0000" d="
  M 2920.42 411.16
  A 0.36 0.36 0.0 0 1 2920.06 411.56
  L 2734.94 411.56
  A 0.74 0.74 0.0 0 1 2734.21 410.94
  C 2726.13 363.64 2683.09 356.56 2643.26 358.91
  C 2622.74 360.12 2597.69 367.08 2593.80 391.02
  C 2589.34 418.48 2606.80 429.52 2629.30 437.20
  Q 2640.18 440.92 2653.39 444.36
  Q 2678.98 451.02 2747.32 467.91
  C 2770.42 473.62 2794.54 480.15 2817.93 488.89
  Q 2835.20 495.34 2847.81 502.55
  C 2874.15 517.62 2899.43 538.59 2914.91 563.51
  C 2930.36 588.38 2936.93 615.79 2937.55 645.25
  C 2938.67 698.37 2923.53 748.64 2886.20 786.73
  C 2846.11 827.66 2787.57 846.63 2732.26 853.68
  Q 2670.16 861.61 2608.75 854.75
  C 2558.87 849.18 2508.15 833.33 2468.19 802.02
  C 2421.30 765.28 2396.36 712.46 2390.76 653.23
  A 0.36 0.35 87.7 0 1 2391.11 652.84
  L 2581.90 652.84
  A 0.54 0.54 0.0 0 1 2582.43 653.27
  Q 2584.79 664.75 2589.70 675.28
  C 2603.70 705.28 2632.41 712.39 2662.91 713.60
  C 2681.17 714.33 2699.79 713.16 2716.60 707.10
  C 2733.44 701.03 2745.91 688.86 2745.99 670.01
  Q 2746.08 647.75 2726.70 637.26
  C 2716.17 631.55 2705.40 628.31 2693.23 625.03
  Q 2690.26 624.23 2641.01 611.95
  Q 2605.25 603.03 2570.59 592.66
  C 2549.09 586.23 2526.23 578.75 2503.67 569.30
  Q 2485.97 561.89 2474.28 554.09
  C 2440.75 531.72 2416.74 499.73 2407.62 460.22
  Q 2397.06 414.54 2407.35 369.74
  C 2417.35 326.20 2443.73 290.26 2480.93 265.94
  C 2521.73 239.27 2570.41 227.03 2618.99 223.08
  Q 2665.90 219.27 2713.49 224.47
  C 2760.92 229.65 2809.10 243.77 2847.70 272.78
  C 2892.29 306.27 2915.92 356.26 2920.42 411.16
  Z"
/>
<path fill="#cc0000" d="
  M 790.78 857.49
  Q 460.82 534.06 428.71 502.55
  Q 406.66 480.90 402.38 450.11
  C 398.64 423.15 407.62 395.33 426.72 376.47
  Q 517.32 286.99 560.61 244.87
  Q 567.28 238.38 577.68 232.93
  C 607.80 217.16 643.52 219.21 671.75 237.88
  Q 678.69 242.47 694.02 257.57
  Q 747.73 310.48 790.82 352.72
  A 0.59 0.59 0.0 0 0 791.65 352.71
  Q 853.26 291.61 893.17 252.17
  Q 899.74 245.67 901.21 244.46
  Q 925.11 224.70 954.37 222.60
  C 980.08 220.75 1005.21 229.95 1023.72 247.53
  Q 1026.08 249.77 1132.82 353.93
  Q 1146.98 367.75 1148.67 369.41
  Q 1159.08 379.65 1163.31 385.66
  C 1187.45 419.96 1185.57 466.66 1156.70 497.70
  Q 1153.72 500.90 1143.35 511.10
  Q 1105.41 548.42 791.70 857.48
  A 0.66 0.65 -45.3 0 1 790.78 857.49
  Z"
/>
<path fill="#cc0000" d="
  M 2120.65 627.50
  A 0.16 0.16 0.0 0 0 2120.96 627.51
  L 2231.24 239.80
  A 0.96 0.95 8.1 0 1 2232.16 239.12
  L 2423.95 239.12
  A 0.67 0.67 0.0 0 1 2424.58 240.00
  L 2219.00 841.65
  A 0.61 0.60 9.5 0 1 2218.43 842.05
  L 2023.39 842.05
  A 0.89 0.89 0.0 0 1 2022.55 841.46
  L 1816.99 239.86
  A 0.56 0.56 0.0 0 1 1817.52 239.12
  L 2016.69 239.12
  A 0.87 0.86 -7.3 0 1 2017.53 239.76
  L 2120.65 627.50
  Z"
/>
</svg>
